<svg version="1.1" id="Ebene_1"
  xmlns="http://www.w3.org/2000/svg"
  xmlns:xlink="http://www.w3.org/1999/xlink" x="0px" y="0px" viewBox="0 0 393.7 420.7" style="enable-background:new 0 0 393.7 420.7;" xml:space="preserve">
  <style type="text/css">
	.st0{fill:#EAEAEA;}
	.st1{fill:#F9CD4F;}
	.st2{fill:#E9B445;}
	.st3{opacity:8.000000e-02;fill:url(#SVGID_1_);}
	.st4{opacity:0.37;fill:url(#SVGID_2_);}
	.st5{opacity:0.17;fill:url(#SVGID_3_);}
	.st6{fill:#F8F7F7;}
	.st7{opacity:0.37;fill:url(#SVGID_4_);}
	.st8{opacity:8.000000e-02;fill:url(#SVGID_5_);}
	.st9{opacity:0.37;fill:url(#SVGID_6_);}
	.st10{opacity:0.17;fill:url(#SVGID_7_);}
	.st11{opacity:0.37;fill:url(#SVGID_8_);}
	.st12{opacity:8.000000e-02;fill:url(#SVGID_9_);}
	.st13{opacity:0.37;fill:url(#SVGID_10_);}
	.st14{opacity:0.17;fill:url(#SVGID_11_);}
	.st15{opacity:0.37;fill:url(#SVGID_12_);}
  </style>
  <g>
    <path class="st0" d="M250.4,420.7H47.8c-14,0-25.4-11.4-25.4-25.4V38.9c0-14,11.4-25.4,25.4-25.4h202.6c14,0,25.4,11.4,25.4,25.4
		v356.3C275.8,409.3,264.4,420.7,250.4,420.7z"/>
  </g>
  <g>
    <path class="st0" d="M316.7,356.5H167.4c-42.5,0-77.1-34.6-77.1-77.1V154.7c0-42.5,34.6-77.1,77.1-77.1h149.3
		c42.5,0,77.1,34.6,77.1,77.1v124.7C393.7,321.9,359.2,356.5,316.7,356.5z M167.4,132.6c-12.2,0-22.1,9.9-22.1,22.1v124.7
		c0,12.2,9.9,22.1,22.1,22.1h149.3c12.2,0,22.1-9.9,22.1-22.1V154.7c0-12.2-9.9-22.1-22.1-22.1H167.4z"/>
  </g>
  <g>
    <path class="st1" d="M244.5,388.1H53.6c-6.1,0-11-4.9-11-11v-320c0-6.1,4.9-11,11-11h190.9c6.1,0,11,4.9,11,11v320
		C255.5,383.2,250.6,388.1,244.5,388.1z"/>
  </g>
  <g>
    <path class="st1" d="M246.1,382.4H55.2c-6.1,0-11-4.9-11-11v-320c0-6.1,4.9-11,11-11h190.9c6.1,0,11,4.9,11,11v320
		C257.1,377.5,252.1,382.4,246.1,382.4z"/>
  </g>
  <circle class="st2" cx="75.6" cy="371.1" r="4.4"/>
  <circle class="st2" cx="243.1" cy="376.8" r="4.4"/>
  <circle class="st2" cx="126.1" cy="343.8" r="2.2"/>
  <circle class="st2" cx="189.2" cy="370.2" r="2.2"/>
  <circle class="st2" cx="243.1" cy="329.2" r="2.2"/>
  <circle class="st2" cx="230.7" cy="365.4" r="2.2"/>
  <circle class="st2" cx="134.1" cy="370.2" r="2.2"/>
  <circle class="st2" cx="130.5" cy="332.4" r="2.2"/>
  <circle class="st2" cx="103.3" cy="307.7" r="2.2"/>
  <circle class="st2" cx="112.3" cy="209.3" r="2.2"/>
  <circle class="st2" cx="192.4" cy="306.7" r="2.2"/>
  <circle class="st2" cx="166.5" cy="327" r="2.2"/>
  <circle class="st2" cx="153.2" cy="302.3" r="2.2"/>
  <circle class="st2" cx="189.2" cy="202.7" r="2.2"/>
  <circle class="st2" cx="69" cy="230.6" r="2.2"/>
  <circle class="st2" cx="101.2" cy="363.2" r="2.2"/>
  <circle class="st2" cx="82.7" cy="348.2" r="2.2"/>
  <circle class="st2" cx="54.1" cy="379" r="2.2"/>
  <circle class="st2" cx="54.1" cy="343.8" r="2.2"/>
  <circle class="st2" cx="63" cy="326.5" r="2.2"/>
  <circle class="st2" cx="52.6" cy="307.7" r="2.2"/>
  <circle class="st2" cx="129.4" cy="323.4" r="2.2"/>
  <circle class="st2" cx="175.5" cy="348.2" r="2.2"/>
  <circle class="st2" cx="226.4" cy="300.1" r="2.2"/>
  <circle class="st2" cx="168.7" cy="271.6" r="2.2"/>
  <circle class="st2" cx="207.8" cy="343" r="4.4"/>
  <circle class="st2" cx="168.7" cy="371.1" r="4.4"/>
  <circle class="st2" cx="101.2" cy="318.4" r="4.4"/>
  <circle class="st2" cx="105.5" cy="343.8" r="3.1"/>
  <circle class="st2" cx="73.4" cy="356.5" r="3.1"/>
  <circle class="st2" cx="77.6" cy="298.4" r="3.1"/>
  <circle class="st2" cx="154.1" cy="355.7" r="3.1"/>
  <circle class="st2" cx="209.1" cy="380.3" r="3.1"/>
  <circle class="st2" cx="225" cy="355.7" r="3.1"/>
  <circle class="st2" cx="198.5" cy="323.9" r="3.1"/>
  <circle class="st2" cx="123.9" cy="277.6" r="3.1"/>
  <circle class="st2" cx="54.1" cy="267.2" r="3.1"/>
  <circle class="st2" cx="158.4" cy="247.7" r="4.4"/>
  <circle class="st2" cx="201.6" cy="292.7" r="4.4"/>
  <circle class="st2" cx="212.2" cy="271.6" r="4.4"/>
  <linearGradient id="SVGID_1_" gradientUnits="userSpaceOnUse" x1="243.0777" y1="133.9438" x2="243.0777" y2="380.3976">
    <stop offset="0" style="stop-color:#999999;stop-opacity:0.98"/>
    <stop offset="0.9991" style="stop-color:#000000"/>
  </linearGradient>
  <path class="st3" d="M250.4,91.2h-40v329.4h40c14,0,25.4-12.4,25.4-23.7V111.8C275.8,100.4,264.4,91.2,250.4,91.2z"/>
  <linearGradient id="SVGID_2_" gradientUnits="userSpaceOnUse" x1="54.0641" y1="177.4837" x2="54.0641" y2="403.3985">
    <stop offset="0" style="stop-color:#FFFFFF"/>
    <stop offset="1" style="stop-color:#939393;stop-opacity:0.2"/>
  </linearGradient>
  <path class="st4" d="M47.8,420.7h37.9V91.2H47.8c-14,0-25.4,9.2-25.4,20.6v285.1C22.4,408.2,33.8,420.7,47.8,420.7z"/>
  <linearGradient id="SVGID_3_" gradientUnits="userSpaceOnUse" x1="179.0751" y1="157.5316" x2="179.0751" y2="401.983">
    <stop offset="0" style="stop-color:#FFFFFF"/>
    <stop offset="1" style="stop-color:#939393;stop-opacity:0.2"/>
  </linearGradient>
  <path class="st5" d="M172.8,420.7h37.9V64.2h-37.9c-14,0-25.4,10-25.4,22.2v312C147.4,410.7,158.8,420.7,172.8,420.7z"/>
  <path class="st6" d="M251.8,131.8c-15.8,0-33.4-4.5-33.4-19.6v0c0-7-5.7-12.7-12.7-12.7h-7.2c-7,0-12.7,5.7-12.7,12.7v1.5
	c0,14-11.4,25.4-25.4,25.4h0c-14,0-25.4-11.4-25.4-25.4v0.3c-0.3-4.1-3.7-7.2-7.8-7.2h0c-4.3,0-7.8,3.5-7.8,7.8V138l0,8.6
	c0,6.8-5.5,12.2-12.2,12.2h0c-6.8,0-12.2-5.5-12.2-12.2l0-8.6l0,0v36.6c0,15.6-12.6,28.2-28.2,28.2h0c-15.6,0-28.2-12.6-28.2-28.2
	v-45.7C9.3,128.9,0,116.2,0,100.4v-72C0,12.7,12.7,0,28.5,0h232.4c15.7,0,28.5,12.7,28.5,28.5v53.7C289.3,125,278,131.8,251.8,131.8
	z"/>
  <linearGradient id="SVGID_4_" gradientUnits="userSpaceOnUse" x1="382.8808" y1="161.8735" x2="382.8808" y2="320.8529">
    <stop offset="0" style="stop-color:#FFFFFF"/>
    <stop offset="1" style="stop-color:#939393;stop-opacity:0.2"/>
  </linearGradient>
  <path class="st7" d="M372,333c13.4-13.9,21.7-32.8,21.7-53.5V154.7c0-20.8-8.3-39.7-21.7-53.5V333z"/>
</svg>
